<mxfile host="app.diagrams.net" modified="2023-09-01T11:20:41.765Z" agent="Mozilla/5.0 (Windows NT 10.0; Win64; x64) AppleWebKit/537.36 (KHTML, like Gecko) Chrome/116.0.0.0 Safari/537.36" version="21.7.1" etag="F2b_Qa9qny4Xl30cCPD7" type="github">
  <diagram name="페이지-1" id="-f6OHyRO8A9MeAszsy6R">
    <mxGraphModel>
      <root>
        <mxCell id="0" />
        <mxCell id="1" parent="0" />
      </root>
    </mxGraphModel>
  </diagram>
</mxfile>
